# Blender v2.90.1 OBJ File: ''
# www.blender.org
mtllib dWskazowka.mtl
o dWskazowka_Cube
v 0.000000 1.970900 0.007938
v 0.090094 1.522459 0.007938
v 0.090094 1.522459 -0.007938
v 0.000000 1.970900 -0.007938
v -0.000000 -0.636729 -0.007938
v 0.074587 -0.636729 -0.007938
v 0.065207 -0.648749 -0.007938
v -0.000000 -0.648749 -0.007938
v 0.065207 -0.648749 0.007938
v -0.000000 -0.648749 0.007938
v 0.000000 1.498897 0.007938
v 0.095722 1.498897 0.007938
v -0.075062 -0.636729 -0.007938
v -0.065291 -0.648749 -0.007938
v -0.065291 -0.648749 0.007938
v -0.075062 -0.636729 0.007938
v 0.095722 1.498897 -0.007938
v 0.095722 1.474858 -0.007938
v 0.095722 1.474858 0.007938
v -0.090094 1.522459 -0.007938
v -0.093846 1.498897 -0.007938
v -0.093846 1.498897 0.007938
v -0.090094 1.522459 0.007938
v 0.000000 1.474858 0.007938
v 0.000000 1.498897 -0.007938
v -0.000000 -0.264125 0.007938
v 0.090094 -0.264125 0.007938
v 0.090094 0.076188 0.007938
v 0.000000 0.076188 0.007938
v 0.090094 -0.264125 -0.007938
v 0.090094 0.076188 -0.007938
v -0.090094 1.075997 -0.007938
v -0.090094 0.076188 -0.007938
v -0.090094 0.076188 0.007938
v -0.090094 1.075997 0.007938
v 0.000000 1.075997 -0.007938
v 0.090094 1.075997 -0.007938
v 0.000000 0.076188 -0.007938
v 0.189781 -0.499180 -0.007938
v 0.189781 -0.499180 0.007938
v -0.090094 -0.264125 -0.007938
v -0.090094 -0.264125 0.007938
v -0.000000 -0.264125 -0.007938
v -0.000000 -0.552593 0.007938
v 0.090094 -0.552593 0.007938
v 0.090094 -0.456437 0.007938
v -0.000000 -0.456437 0.007938
v 0.090094 -0.552593 -0.007938
v 0.090094 -0.456437 -0.007938
v -0.095956 -0.442710 -0.007938
v -0.090094 -0.456437 -0.007938
v -0.090094 -0.456437 0.007938
v -0.095956 -0.442710 0.007938
v -0.000391 -0.442710 -0.007938
v 0.095175 -0.442710 -0.007938
v -0.000000 -0.456437 -0.007938
v -0.190591 -0.497908 -0.007938
v -0.114014 -0.424934 -0.007938
v -0.114014 -0.424934 0.007938
v -0.190591 -0.497908 0.007938
v -0.001346 -0.430787 0.007938
v 0.101037 -0.430939 0.007938
v 0.114944 -0.425365 0.007938
v 0.000465 -0.425149 0.007938
v 0.101037 -0.430939 -0.007938
v 0.114944 -0.425365 -0.007938
v 0.095175 -0.442710 0.007938
v -0.000391 -0.442710 0.007938
v -0.001346 -0.430787 -0.007938
v -0.103730 -0.430635 -0.007938
v -0.103730 -0.430635 0.007938
v 0.000465 -0.425149 -0.007938
v -0.011960 -0.344529 -0.007938
v -0.051027 -0.304327 -0.007938
v -0.090094 -0.264125 -0.007938
v -0.090094 -0.264125 -0.007938
v -0.102054 -0.344529 -0.007938
v -0.114014 -0.424934 -0.007938
v -0.093846 1.474858 0.007938
v 0.000000 1.075997 0.007938
v -0.090094 1.268309 -0.007938
v 0.000000 1.268309 -0.007938
v 0.090094 1.268309 -0.007938
v -0.090094 1.268309 0.007938
v 0.090094 1.075997 0.007938
v -0.083996 1.402741 -0.007938
v -0.083996 1.402741 0.007938
v 0.000000 1.402741 -0.007938
v 0.083527 1.402741 -0.007938
v 0.000000 1.268309 0.007938
v 0.090094 1.268309 0.007938
v -0.083996 1.426780 -0.007938
v 0.000000 1.426780 -0.007938
v 0.083527 1.426780 -0.007938
v -0.083996 1.426780 0.007938
v 0.000000 1.402741 0.007938
v 0.083527 1.402741 0.007938
v -0.093846 1.474858 -0.007938
v -0.090094 1.450819 -0.007938
v -0.090094 1.450819 0.007938
v 0.000000 1.474858 -0.007938
v 0.090094 1.450819 -0.007938
v 0.000000 1.450819 -0.007938
v 0.000000 1.426780 0.007938
v 0.000000 1.450819 0.007938
v 0.083527 1.426780 0.007938
v 0.090094 1.450819 0.007938
v 0.089862 -0.576632 -0.007938
v 0.089862 -0.576632 0.007938
v -0.000000 -0.576632 0.007938
v -0.090094 -0.552593 -0.007938
v -0.090094 -0.552593 0.007938
v -0.000000 -0.552593 -0.007938
v -0.000000 -0.624710 0.007938
v 0.082013 -0.624710 0.007938
v 0.087485 -0.600671 0.007938
v -0.000000 -0.600671 0.007938
v 0.082013 -0.624710 -0.007938
v 0.087485 -0.600671 -0.007938
v -0.089471 -0.576632 -0.007938
v -0.087569 -0.600671 -0.007938
v -0.087569 -0.600671 0.007938
v -0.089471 -0.576632 0.007938
v -0.000000 -0.576632 -0.007938
v -0.000000 -0.600671 -0.007938
v -0.082488 -0.624710 0.007938
v -0.000000 -0.624710 -0.007938
v -0.082488 -0.624710 -0.007938
v -0.000000 -0.636729 0.007938
v 0.074587 -0.636729 0.007938
vt 0.500000 0.000000
vt 0.625000 0.000000
vt 0.625000 0.250000
vt 0.500000 0.250000
vt 0.500000 0.499023
vt 0.625488 0.499512
vt 0.625000 0.500000
vt 0.500000 0.500000
vt 0.625000 0.750000
vt 0.500000 0.750000
vt 0.500000 0.875000
vt 0.625000 0.875000
vt 0.625000 1.000000
vt 0.500000 1.000000
vt 0.374512 0.499512
vt 0.375000 0.500000
vt 0.375000 0.750000
vt 0.374512 0.750488
vt 0.750000 0.500000
vt 0.875000 0.500000
vt 0.875000 0.750000
vt 0.750000 0.750000
vt 0.748047 0.500000
vt 0.748047 0.750000
vt 0.125000 0.500000
vt 0.250000 0.500000
vt 0.250000 0.750000
vt 0.125000 0.750000
vt 0.500000 0.873047
vt 0.625000 0.873047
vt 0.625000 0.375000
vt 0.500000 0.375000
vt 0.500000 0.781250
vt 0.625000 0.781250
vt 0.625000 0.812500
vt 0.500000 0.812500
vt 0.656250 0.500000
vt 0.687500 0.500000
vt 0.687500 0.750000
vt 0.656250 0.750000
vt 0.281250 0.500000
vt 0.312500 0.500000
vt 0.312500 0.750000
vt 0.281250 0.750000
vt 0.500000 0.406250
vt 0.625000 0.406250
vt 0.625000 0.437500
vt 0.500000 0.437500
vt 0.652344 0.500000
vt 0.652344 0.750000
vt 0.343750 0.500000
vt 0.343750 0.750000
vt 0.625000 0.468750
vt 0.500000 0.468750
vt 0.500000 0.757812
vt 0.625000 0.757812
vt 0.625000 0.765625
vt 0.500000 0.765625
vt 0.632812 0.500000
vt 0.640625 0.500000
vt 0.640625 0.750000
vt 0.632812 0.750000
vt 0.355469 0.500000
vt 0.359375 0.500000
vt 0.359375 0.750000
vt 0.355469 0.750000
vt 0.500000 0.480469
vt 0.625000 0.480469
vt 0.625000 0.484375
vt 0.500000 0.484375
vt 0.347656 0.500000
vt 0.351562 0.500000
vt 0.351562 0.750000
vt 0.347656 0.750000
vt 0.500000 0.771484
vt 0.625000 0.771484
vt 0.625000 0.773438
vt 0.500000 0.773438
vt 0.646484 0.500000
vt 0.648438 0.500000
vt 0.648438 0.750000
vt 0.646484 0.750000
vt 0.644531 0.500000
vt 0.644531 0.750000
vt 0.625000 0.769531
vt 0.500000 0.769531
vt 0.500000 0.478516
vt 0.625000 0.478516
vt 0.353516 0.500000
vt 0.353516 0.750000
vt 0.500000 0.476562
vt 0.625000 0.476562
vt 0.375000 0.781250
vt 0.000000 0.000000
vt 0.175781 0.375000
vt 0.511719 0.488281
vt 0.328125 0.250000
vt 0.250000 0.234375
vt 0.312500 0.234375
vt 0.375000 0.468750
vt 0.049091 0.061364
vt 0.000000 0.000000
vt 0.000000 0.000000
vt 0.000000 0.000000
vt 0.375000 0.437500
vt 0.375000 0.406250
vt 0.375000 0.812500
vt 0.375000 0.250000
vt 0.375000 0.375000
vt 0.375000 0.873047
vt 0.375000 0.875000
vt 0.375000 1.000000
vt 0.375000 0.000000
vt 0.500000 0.843750
vt 0.375000 0.843750
vt 0.375000 0.390625
vt 0.500000 0.390625
vt 0.625000 0.390625
vt 0.265625 0.500000
vt 0.265625 0.750000
vt 0.625000 0.843750
vt 0.718750 0.500000
vt 0.718750 0.750000
vt 0.257812 0.500000
vt 0.257812 0.750000
vt 0.500000 0.382812
vt 0.625000 0.382812
vt 0.375000 0.382812
vt 0.500000 0.859375
vt 0.375000 0.859375
vt 0.625000 0.859375
vt 0.734375 0.500000
vt 0.734375 0.750000
vt 0.375000 0.380859
vt 0.500000 0.380859
vt 0.625000 0.380859
vt 0.255859 0.500000
vt 0.255859 0.750000
vt 0.500000 0.867188
vt 0.375000 0.867188
vt 0.625000 0.867188
vt 0.742188 0.500000
vt 0.742188 0.750000
vt 0.251953 0.500000
vt 0.253906 0.500000
vt 0.253906 0.750000
vt 0.251953 0.750000
vt 0.500000 0.376953
vt 0.625000 0.376953
vt 0.625000 0.378906
vt 0.500000 0.378906
vt 0.375000 0.376953
vt 0.375000 0.378906
vt 0.375000 0.869141
vt 0.500000 0.869141
vt 0.500000 0.871094
vt 0.375000 0.871094
vt 0.625000 0.869141
vt 0.625000 0.871094
vt 0.744141 0.500000
vt 0.746094 0.500000
vt 0.746094 0.750000
vt 0.744141 0.750000
vt 0.630859 0.500000
vt 0.630859 0.750000
vt 0.500000 0.755859
vt 0.625000 0.755859
vt 0.367188 0.500000
vt 0.367188 0.750000
vt 0.625000 0.492188
vt 0.500000 0.492188
vt 0.500000 0.751953
vt 0.625977 0.750977
vt 0.625000 0.753906
vt 0.500000 0.753906
vt 0.625977 0.499023
vt 0.628906 0.500000
vt 0.628906 0.750000
vt 0.369141 0.500000
vt 0.371094 0.500000
vt 0.371094 0.750000
vt 0.369141 0.750000
vt 0.500000 0.494141
vt 0.625000 0.494141
vt 0.625000 0.496094
vt 0.500000 0.496094
vt 0.375000 0.494141
vt 0.375000 0.496094
vt 0.374023 0.750977
vt 0.375000 0.753906
vt 0.375000 0.484375
vt 0.375000 0.492188
vt 0.375000 0.755859
vt 0.375000 0.757812
vt 0.375000 0.476562
vt 0.375000 0.769531
vt 0.375000 0.771484
vt 0.375000 0.478516
vt 0.375000 0.480469
vt 0.375000 0.765625
vt 0.375000 0.773438
vt 0.500000 0.498047
vt 0.374023 0.499023
vt 0.500000 0.750977
vt 0.625488 0.750488
vn 0.9804 0.1970 -0.0000
vn 0.0000 0.0000 -1.0000
vn 0.0000 -1.0000 0.0000
vn -0.0000 0.0000 1.0000
vn -0.7760 -0.6308 0.0000
vn 0.9726 0.2323 0.0000
vn 1.0000 0.0000 0.0000
vn -0.9876 0.1573 0.0000
vn -1.0000 0.0000 0.0000
vn 0.9206 0.3904 0.0000
vn 1.0000 -0.0048 0.0000
vn -0.9197 -0.3927 0.0000
vn 0.6899 -0.7239 0.0000
vn 0.3720 -0.9282 0.0000
vn 0.9378 -0.3471 0.0000
vn -0.8408 -0.5413 0.0000
vn -0.4848 -0.8746 0.0000
vn 0.8951 -0.4458 0.0000
vn -0.9187 0.3949 0.0000
vn -0.7022 -0.7120 0.0000
vn -0.9804 0.1970 0.0000
vn -0.9990 0.0453 0.0000
vn 0.9988 0.0488 0.0000
vn -0.9880 -0.1542 0.0000
vn 0.9647 -0.2635 0.0000
vn 0.9737 -0.2280 0.0000
vn -0.9693 -0.2459 0.0000
vn 1.0000 -0.0097 0.0000
vn 0.9751 -0.2220 0.0000
vn -0.9969 -0.0789 0.0000
vn 0.8507 -0.5256 0.0000
vn -0.9784 -0.2068 0.0000
vn 0.7884 -0.6152 0.0000
vn -0.8507 -0.5256 0.0000
vn -0.9997 -0.0259 0.0000
vn 0.9951 -0.0984 0.0000
usemtl None.001
s 1
f 1/1/1 2/2/1 3/3/1 4/4/1
f 5/5/2 6/6/2 7/7/2 8/8/2
f 8/8/3 7/7/3 9/9/3 10/10/3
f 11/11/4 12/12/4 2/13/4 1/14/4
f 13/15/5 14/16/5 15/17/5 16/18/5
f 17/19/6 3/20/6 2/21/6 12/22/6
f 18/23/7 17/19/7 12/22/7 19/24/7
f 20/25/8 21/26/8 22/27/8 23/28/8
f 24/29/4 19/30/4 12/12/4 11/11/4
f 4/4/2 3/3/2 17/31/2 25/32/2
f 26/33/4 27/34/4 28/35/4 29/36/4
f 30/37/7 31/38/7 28/39/7 27/40/7
f 32/41/9 33/42/9 34/43/9 35/44/9
f 36/45/2 37/46/2 31/47/2 38/48/2
f 39/49/10 30/37/10 27/40/10 40/50/10
f 33/42/9 41/51/9 42/52/9 34/43/9
f 38/48/2 31/47/2 30/53/2 43/54/2
f 44/55/4 45/56/4 46/57/4 47/58/4
f 48/59/11 49/60/7 46/61/7 45/62/11
f 50/63/12 51/64/12 52/65/12 53/66/12
f 54/67/2 55/68/2 49/69/2 56/70/2
f 57/71/13 58/72/13 59/73/13 60/74/13
f 61/75/4 62/76/4 63/77/4 64/78/4
f 65/79/14 66/80/14 63/81/14 62/82/14
f 49/60/15 55/83/15 67/84/15 46/61/15
f 47/58/4 46/57/4 67/85/4 68/86/4
f 69/87/2 65/88/2 55/68/2 54/67/2
f 70/89/16 50/63/16 53/66/16 71/90/16
f 58/72/17 70/89/17 71/90/17 59/73/17
f 72/91/2 66/92/2 65/88/2 69/87/2
f 55/83/18 65/79/18 62/82/18 67/84/18
f 68/86/4 67/85/4 62/76/4 61/75/4
f 41/51/19 57/71/19 60/74/19 42/52/19
f 66/80/20 39/49/20 40/50/20 63/81/20
f 42/93/4 63/94/4 27/34/4 26/33/4
f 60/74/4 59/73/4 42/52/4
f 63/94/4 42/93/4 59/73/4 64/95/4
f 40/50/4 27/34/4 63/81/4
f 39/49/2 66/80/2 30/37/2
f 72/96/2 73/97/2 30/37/2 66/80/2
f 74/98/2 43/54/2 30/53/2 73/99/2
f 57/71/2 41/100/2 75/101/2 76/102/2 77/103/2 78/104/2 58/72/2
f 75/101/2 41/100/2 43/54/2 74/98/2
f 33/105/2 38/48/2 43/54/2 41/100/2
f 32/106/2 36/45/2 38/48/2 33/105/2
f 42/93/4 26/33/4 29/36/4 34/107/4
f 20/108/2 4/4/2 25/32/2 21/109/2
f 79/110/4 24/29/4 11/11/4 22/111/4
f 22/111/4 11/11/4 1/14/4 23/112/4
f 23/113/21 1/1/21 4/4/21 20/108/21
f 34/107/4 29/36/4 80/114/4 35/115/4
f 81/116/2 82/117/2 36/45/2 32/106/2
f 82/117/2 83/118/2 37/46/2 36/45/2
f 81/119/9 32/41/9 35/44/9 84/120/9
f 29/36/4 28/35/4 85/121/4 80/114/4
f 31/38/7 37/122/7 85/123/7 28/39/7
f 86/124/22 81/119/22 84/120/22 87/125/22
f 88/126/2 89/127/2 83/118/2 82/117/2
f 86/128/2 88/126/2 82/117/2 81/116/2
f 35/115/4 80/114/4 90/129/4 84/130/4
f 80/114/4 85/121/4 91/131/4 90/129/4
f 37/122/7 83/132/7 91/133/7 85/123/7
f 92/134/2 93/135/2 88/126/2 86/128/2
f 93/135/2 94/136/2 89/127/2 88/126/2
f 92/137/9 86/124/9 87/125/9 95/138/9
f 84/130/4 90/129/4 96/139/4 87/140/4
f 90/129/4 91/131/4 97/141/4 96/139/4
f 83/132/23 89/142/23 97/143/23 91/133/23
f 98/144/24 99/145/24 100/146/24 79/147/24
f 101/148/2 18/149/2 102/150/2 103/151/2
f 98/152/2 101/148/2 103/151/2 99/153/2
f 95/154/4 104/155/4 105/156/4 100/157/4
f 104/155/4 106/158/4 107/159/4 105/156/4
f 94/160/25 102/161/25 107/162/25 106/163/25
f 21/109/2 25/32/2 101/148/2 98/152/2
f 25/32/2 17/31/2 18/149/2 101/148/2
f 21/26/9 98/144/9 79/147/9 22/27/9
f 100/157/4 105/156/4 24/29/4 79/110/4
f 105/156/4 107/159/4 19/30/4 24/29/4
f 102/161/26 18/23/26 19/24/26 107/162/26
f 89/142/7 94/160/7 106/163/7 97/143/7
f 96/139/4 97/141/4 106/158/4 104/155/4
f 87/140/4 96/139/4 104/155/4 95/154/4
f 99/145/27 92/137/27 95/138/27 100/146/27
f 103/151/2 102/150/2 94/136/2 93/135/2
f 99/153/2 103/151/2 93/135/2 92/134/2
f 108/164/28 48/59/11 45/62/11 109/165/28
f 110/166/4 109/167/4 45/56/4 44/55/4
f 51/64/9 111/168/9 112/169/9 52/65/9
f 56/70/2 49/69/2 48/170/2 113/171/2
f 114/172/4 115/173/4 116/174/4 117/175/4
f 118/176/29 119/177/29 116/178/29 115/173/29
f 120/179/30 121/180/30 122/181/30 123/182/30
f 124/183/2 108/184/2 119/185/2 125/186/2
f 120/187/2 124/183/2 125/186/2 121/188/2
f 126/189/4 114/172/4 117/175/4 122/190/4
f 51/191/2 56/70/2 113/171/2 111/192/2
f 123/193/4 110/166/4 44/55/4 112/194/4
f 76/102/2 75/101/2 74/98/2 77/103/2
f 77/103/2 74/98/2 73/99/2 78/104/2
f 58/195/2 78/104/2 73/97/2 72/96/2
f 53/196/4 68/86/4 61/75/4 71/197/4
f 58/195/2 72/91/2 69/87/2 70/198/2
f 70/198/2 69/87/2 54/67/2 50/199/2
f 52/200/4 47/58/4 68/86/4 53/196/4
f 71/197/4 61/75/4 64/78/4 59/201/4
f 50/199/2 54/67/2 56/70/2 51/191/2
f 112/194/4 44/55/4 47/58/4 52/200/4
f 14/16/3 8/8/3 10/10/3 15/17/3
f 13/15/2 5/5/2 8/8/2 14/16/2
f 121/188/2 125/186/2 127/202/2 128/203/2
f 16/18/4 129/204/4 114/172/4 126/189/4
f 6/6/31 118/176/31 115/173/31 130/205/31
f 129/204/4 130/205/4 115/173/4 114/172/4
f 121/180/32 128/203/32 126/189/32 122/181/32
f 125/186/2 119/185/2 118/176/2 127/202/2
f 10/10/4 9/9/4 130/205/4 129/204/4
f 7/7/33 6/6/33 130/205/33 9/9/33
f 15/17/4 10/10/4 129/204/4 16/18/4
f 128/203/2 127/202/2 5/5/2 13/15/2
f 128/203/34 13/15/34 16/18/34 126/189/34
f 127/202/2 118/176/2 6/6/2 5/5/2
f 122/190/4 117/175/4 110/166/4 123/193/4
f 111/192/2 113/171/2 124/183/2 120/187/2
f 113/171/2 48/170/2 108/184/2 124/183/2
f 111/168/35 120/179/35 123/182/35 112/169/35
f 117/175/4 116/174/4 109/167/4 110/166/4
f 119/177/36 108/164/36 109/165/36 116/178/36
