# Blender v2.90.1 OBJ File: ''
# www.blender.org
mtllib glass.mtl
o Glass_Меш.002
v 0.328605 1.547797 -0.056259
v -0.072052 1.547797 -0.056392
v 0.328605 1.982808 -0.056259
v -0.072052 1.982808 -0.056392
v 0.328605 0.484492 -0.055640
v -0.072052 0.484492 -0.055773
v 0.328605 1.522425 -0.055640
v -0.072052 1.522425 -0.055773
v -0.126572 0.484492 0.003532
v -0.126655 0.484492 0.252872
v -0.126572 1.522425 0.003532
v -0.126655 1.522425 0.252872
v 0.382972 1.522425 0.003701
v 0.382973 0.484492 0.003701
v 0.382890 1.522425 0.253041
v 0.382890 0.484492 0.253041
v 0.224513 2.122528 -0.055675
v 0.294845 1.996269 -0.055651
v -0.038292 1.996269 -0.055762
v 0.032040 2.122528 -0.055738
v 0.128276 1.996269 -0.055706
v 0.128276 2.149088 -0.055707
v 0.272203 2.060391 -0.055659
v -0.015650 2.060391 -0.055754
vt 0.999500 0.331806
vt 0.694359 0.331806
vt 0.694359 0.000500
vt 0.999500 0.000500
vt 0.000500 0.790993
vt 0.000500 0.000500
vt 0.305641 0.790993
vt 0.305641 0.000500
vt 0.501392 0.790993
vt 0.691290 0.000500
vt 0.691290 0.790993
vt 0.501392 0.000500
vt 0.498323 0.790993
vt 0.308426 0.000500
vt 0.498323 0.000500
vt 0.308425 0.790993
vt 0.052445 0.889939
vt 0.127341 0.795022
vt 0.125389 0.911394
vt 0.254182 0.797150
vt 0.236122 0.845689
vt 0.016923 0.842013
vt 0.000500 0.792895
vt 0.199012 0.892398
vn 0.0003 -0.0000 -1.0000
vn -1.0000 -0.0000 -0.0003
vn 1.0000 0.0000 0.0003
usemtl Glass
s 1
f 4/1/1 3/2/1 1/3/1
f 4/1/1 1/3/1 2/4/1
f 7/5/1 5/6/1 8/7/1
f 8/7/1 5/6/1 6/8/1
f 11/9/2 10/10/2 12/11/2
f 10/10/2 11/9/2 9/12/2
f 13/13/3 16/14/3 14/15/3
f 16/14/3 13/13/3 15/16/3
f 17/17/1 21/18/1 22/19/1
f 21/18/1 19/20/1 24/21/1
f 23/22/1 18/23/1 21/18/1
f 24/21/1 20/24/1 21/18/1
f 17/17/1 23/22/1 21/18/1
f 20/24/1 22/19/1 21/18/1
