# Blender v2.90.1 OBJ File: 'moon.blend'
# www.blender.org
mtllib moon.mtl
o MoonDial_Меш.004
v 0.128658 1.825406 -0.035907
v 0.066524 1.837765 -0.035907
v 0.013849 1.872961 -0.035907
v -0.021347 1.925636 -0.035907
v -0.033707 1.987770 -0.035907
v -0.021347 2.049905 -0.035907
v 0.013849 2.102579 -0.035907
v 0.066524 2.137776 -0.035907
v 0.128658 2.150135 -0.035907
v 0.190792 2.137776 -0.035907
v 0.243467 2.102579 -0.035907
v 0.278663 2.049905 -0.035907
v 0.291022 1.987770 -0.035907
v 0.278663 1.925636 -0.035907
v 0.243467 1.872961 -0.035907
v 0.190792 1.837765 -0.035907
vt 0.510692 0.010000
vt 0.697393 0.051391
vt 0.854043 0.161078
vt 0.956792 0.322363
vt 0.990000 0.510692
vt 0.948609 0.697393
vt 0.838922 0.854043
vt 0.677637 0.956792
vt 0.489308 0.990000
vt 0.302607 0.948609
vt 0.145957 0.838922
vt 0.043207 0.677637
vt 0.010000 0.489308
vt 0.051391 0.302607
vt 0.161078 0.145957
vt 0.322363 0.043207
vn 0.0000 0.0000 -1.0000
usemtl MoonDial.001
s 1
f 1/1/1 2/2/1 3/3/1
f 3/3/1 4/4/1 5/5/1
f 5/5/1 6/6/1 7/7/1
f 3/3/1 5/5/1 7/7/1
f 7/7/1 8/8/1 9/9/1
f 9/9/1 10/10/1 11/11/1
f 7/7/1 9/9/1 11/11/1
f 11/11/1 12/12/1 13/13/1
f 13/13/1 14/14/1 15/15/1
f 11/11/1 13/13/1 15/15/1
f 7/7/1 11/11/1 15/15/1
f 3/3/1 7/7/1 15/15/1
f 1/1/1 3/3/1 15/15/1
f 16/16/1 1/1/1 15/15/1
