# Blender v2.90.1 OBJ File: 'wahadlo.blend'
# www.blender.org
mtllib wahadlo.mtl
o wahadlo_ĞœĞµÑˆ.005
v -0.007455 -0.790451 -0.013455
v 0.000052 -0.790451 -0.005962
v 0.007545 -0.790451 -0.013468
v 0.000039 -0.790451 -0.020962
v -0.007455 0.001049 -0.013455
v 0.000052 0.001049 -0.005962
v 0.007545 0.001049 -0.013468
v 0.000039 0.001049 -0.020962
v -0.017633 -0.613017 -0.013447
v -0.012444 -0.613017 -0.000951
v 0.000060 -0.613017 0.004216
v 0.012556 -0.613017 -0.000972
v 0.017723 -0.613017 -0.013477
v 0.012535 -0.613017 -0.025972
v 0.000030 -0.613017 -0.031140
v -0.012466 -0.613017 -0.025951
v -0.017633 -0.169763 -0.013447
v -0.012444 -0.169763 -0.000951
v 0.000060 -0.169763 0.004216
v 0.012556 -0.169763 -0.000972
v 0.017723 -0.169763 -0.013477
v 0.012535 -0.169763 -0.025972
v 0.000030 -0.169763 -0.031140
v -0.012466 -0.169763 -0.025951
v 0.000027 -0.879182 -0.034491
v 0.000063 -0.879182 0.007568
v -0.126194 -0.879182 -0.013354
v -0.121923 -0.879182 -0.009853
v -0.121929 -0.879182 -0.016862
v -0.121893 -0.846509 -0.013358
v -0.117773 -0.847614 -0.016866
v -0.117767 -0.847614 -0.009857
v -0.109282 -0.816062 -0.013369
v -0.105588 -0.818196 -0.016876
v -0.105582 -0.818196 -0.009867
v -0.089220 -0.789917 -0.013386
v -0.086205 -0.792935 -0.016893
v -0.086199 -0.792935 -0.009884
v -0.063075 -0.769855 -0.013408
v -0.060943 -0.773552 -0.016914
v -0.060938 -0.773552 -0.009905
v -0.032628 -0.757244 -0.013434
v -0.031526 -0.761367 -0.016939
v -0.031520 -0.761367 -0.009930
v 0.000045 -0.752942 -0.013462
v 0.000042 -0.757211 -0.016966
v 0.000048 -0.757211 -0.009957
v 0.032719 -0.757244 -0.013489
v 0.031611 -0.761367 -0.016993
v 0.031617 -0.761367 -0.009984
v 0.063165 -0.769855 -0.013515
v 0.061028 -0.773552 -0.017018
v 0.061034 -0.773552 -0.010009
v 0.089310 -0.789917 -0.013537
v 0.086289 -0.792935 -0.017039
v 0.086295 -0.792935 -0.010031
v 0.109372 -0.816062 -0.013555
v 0.105673 -0.818196 -0.017056
v 0.105679 -0.818196 -0.010047
v 0.121983 -0.846509 -0.013565
v 0.117858 -0.847614 -0.017066
v 0.117864 -0.847614 -0.010057
v 0.126285 -0.879182 -0.013569
v 0.122014 -0.879182 -0.017070
v 0.122020 -0.879182 -0.010061
v 0.121983 -0.911855 -0.013565
v 0.117858 -0.910751 -0.017066
v 0.117864 -0.910751 -0.010057
v 0.109372 -0.942302 -0.013555
v 0.105673 -0.940168 -0.017056
v 0.105679 -0.940168 -0.010047
v 0.089310 -0.968447 -0.013537
v 0.086289 -0.965429 -0.017039
v 0.086295 -0.965429 -0.010030
v 0.063165 -0.988509 -0.013515
v 0.061028 -0.984812 -0.017018
v 0.061034 -0.984812 -0.010009
v 0.032719 -1.001120 -0.013489
v 0.031611 -0.996997 -0.016993
v 0.031617 -0.996997 -0.009984
v 0.000045 -1.005422 -0.013462
v 0.000042 -1.001153 -0.016966
v 0.000048 -1.001153 -0.009957
v -0.032628 -1.001120 -0.013434
v -0.031526 -0.996997 -0.016939
v -0.031520 -0.996997 -0.009930
v -0.063074 -0.988509 -0.013408
v -0.060943 -0.984812 -0.016914
v -0.060937 -0.984812 -0.009905
v -0.089220 -0.968447 -0.013386
v -0.086204 -0.965429 -0.016893
v -0.086198 -0.965429 -0.009884
v -0.109281 -0.942302 -0.013369
v -0.105588 -0.940168 -0.016876
v -0.105582 -0.940168 -0.009867
v -0.121893 -0.911855 -0.013358
v -0.117773 -0.910751 -0.016866
v -0.117767 -0.910751 -0.009857
vt 0.489711 0.436982
vt 0.489698 0.440387
vt 0.294614 0.440387
vt 0.294628 0.436982
vt 0.489684 0.443791
vt 0.294600 0.443791
vt 0.489670 0.447197
vt 0.294586 0.447196
vt 0.489656 0.450601
vt 0.294572 0.450601
vt 0.502642 0.633649
vt 0.502642 0.629843
vt 0.627323 0.629843
vt 0.627323 0.633649
vt 0.502642 0.626037
vt 0.627323 0.626037
vt 0.502642 0.656484
vt 0.502642 0.652678
vt 0.627322 0.652678
vt 0.627322 0.656484
vt 0.502642 0.648872
vt 0.627322 0.648873
vt 0.502642 0.645066
vt 0.627322 0.645067
vt 0.502642 0.641261
vt 0.627323 0.641261
vt 0.502642 0.637455
vt 0.627323 0.637455
vt 0.523466 0.456234
vt 0.531300 0.460665
vt 0.510550 0.488177
vt 0.537722 0.466980
vt 0.542288 0.474771
vt 0.544684 0.483468
vt 0.544747 0.492437
vt 0.542481 0.501106
vt 0.538054 0.508920
vt 0.531754 0.515329
vt 0.524010 0.519893
vt 0.515348 0.522297
vt 0.506358 0.522377
vt 0.497653 0.520128
vt 0.489826 0.515702
vt 0.483411 0.509401
vt 0.478845 0.501655
vt 0.476439 0.492989
vt 0.476359 0.483996
vt 0.478608 0.475287
vt 0.483035 0.467457
vt 0.489338 0.461039
vt 0.497088 0.456471
vt 0.505757 0.454065
vt 0.514754 0.453983
vt 0.093130 0.903640
vt 0.061193 0.890716
vt 0.095394 0.894972
vt 0.095330 0.886004
vt 0.092934 0.877309
vt 0.088368 0.869521
vt 0.081948 0.863208
vt 0.074116 0.858779
vt 0.065408 0.856528
vt 0.056420 0.856604
vt 0.047770 0.858985
vt 0.040020 0.863556
vt 0.033687 0.869982
vt 0.029252 0.877818
vt 0.027002 0.886531
vt 0.027084 0.895526
vt 0.029491 0.904193
vt 0.034059 0.911941
vt 0.040476 0.918242
vt 0.048304 0.922667
vt 0.057010 0.924915
vt 0.066000 0.924833
vt 0.074662 0.922428
vt 0.082406 0.917864
vt 0.088704 0.911454
vt 0.524054 0.454768
vt 0.532249 0.459400
vt 0.538969 0.466004
vt 0.543758 0.474151
vt 0.546249 0.483255
vt 0.546299 0.492631
vt 0.543942 0.501694
vt 0.539315 0.509866
vt 0.532729 0.516571
vt 0.524630 0.521344
vt 0.515571 0.523859
vt 0.506169 0.523944
vt 0.497065 0.521593
vt 0.488879 0.516966
vt 0.482169 0.510377
vt 0.477393 0.502275
vt 0.474876 0.493213
vt 0.474790 0.483807
vt 0.477142 0.474699
vt 0.481771 0.466510
vt 0.488363 0.459797
vt 0.496467 0.455019
vt 0.505533 0.452501
vt 0.514942 0.452415
vt 0.096947 0.895166
vt 0.094591 0.904228
vt 0.096895 0.885792
vt 0.094403 0.876689
vt 0.089615 0.868544
vt 0.082896 0.861943
vt 0.074704 0.857313
vt 0.065597 0.854961
vt 0.056198 0.855043
vt 0.047159 0.857541
vt 0.039040 0.862300
vt 0.032420 0.869031
vt 0.027785 0.877230
vt 0.025433 0.886342
vt 0.025520 0.895750
vt 0.028039 0.904814
vt 0.032817 0.912917
vt 0.039529 0.919505
vt 0.047717 0.924132
vt 0.056822 0.926483
vt 0.066224 0.926396
vt 0.075283 0.923879
vt 0.083380 0.919105
vt 0.089965 0.912401
vn -1.0000 -0.0000 0.0009
vn 0.0009 0.0000 1.0000
vn 1.0000 0.0000 -0.0009
vn -0.0009 -0.0000 -1.0000
vn -0.7065 -0.0000 0.7077
vn -0.7062 -0.0000 0.7081
vn 0.0008 -0.0000 1.0000
vn 0.7077 0.0000 0.7065
vn 0.7065 0.0000 -0.7077
vn -0.7077 -0.0000 -0.7065
vn -0.4225 0.0000 -0.9064
vn -0.4081 0.1098 -0.9063
vn -0.3660 0.2108 -0.9064
vn -0.2986 0.2978 -0.9067
vn -0.2116 0.3652 -0.9066
vn -0.1099 0.4073 -0.9067
vn -0.0008 0.4217 -0.9067
vn 0.1087 0.4073 -0.9068
vn 0.2101 0.3652 -0.9069
vn 0.2972 0.2979 -0.9071
vn 0.3644 0.2108 -0.9070
vn 0.4066 0.1096 -0.9070
vn 0.4209 0.0000 -0.9071
vn 0.4066 -0.1099 -0.9070
vn 0.3644 -0.2108 -0.9071
vn 0.2974 -0.2982 -0.9070
vn 0.2101 -0.3652 -0.9069
vn 0.1084 -0.4073 -0.9068
vn -0.0008 -0.4217 -0.9067
vn -0.1099 -0.4073 -0.9066
vn -0.2116 -0.3652 -0.9066
vn -0.2986 -0.2979 -0.9067
vn -0.3660 -0.2108 -0.9064
vn -0.4081 -0.1098 -0.9063
vn -0.4209 -0.0000 0.9071
vn -0.4066 0.1099 0.9070
vn -0.3644 0.2108 0.9071
vn -0.2970 0.2978 0.9072
vn -0.2101 0.3652 0.9069
vn -0.1084 0.4073 0.9068
vn 0.0008 0.4217 0.9067
vn 0.1099 0.4073 0.9067
vn 0.2112 0.3644 0.9070
vn 0.2984 0.2976 0.9068
vn 0.3660 0.2108 0.9064
vn 0.4081 0.1091 0.9064
vn 0.4225 -0.0000 0.9064
vn 0.4081 -0.1091 0.9064
vn 0.3660 -0.2108 0.9064
vn 0.2985 -0.2977 0.9068
vn 0.2116 -0.3652 0.9066
vn 0.1107 -0.4074 0.9065
vn 0.0008 -0.4217 0.9067
vn -0.1084 -0.4073 0.9068
vn -0.2101 -0.3652 0.9069
vn -0.2974 -0.2982 0.9070
vn -0.3644 -0.2108 0.9071
vn -0.4065 -0.1091 0.9071
vn -1.0000 0.0000 0.0008
vn -0.9658 0.2594 0.0008
vn -0.8660 0.5000 0.0007
vn -0.7071 0.7071 0.0006
vn -0.5000 0.8660 0.0004
vn -0.2593 0.9658 0.0002
vn -0.0000 1.0000 0.0000
vn 0.2592 0.9658 -0.0002
vn 0.5000 0.8660 -0.0004
vn 0.7071 0.7071 -0.0006
vn 0.8660 0.5000 -0.0007
vn 0.9658 0.2594 -0.0008
vn 1.0000 0.0000 -0.0008
vn 0.9658 -0.2593 -0.0008
vn 0.8660 -0.5000 -0.0007
vn 0.7071 -0.7071 -0.0006
vn 0.5000 -0.8660 -0.0004
vn 0.2594 -0.9658 -0.0002
vn -0.0000 -1.0000 -0.0000
vn -0.2588 -0.9659 0.0002
vn -0.5000 -0.8660 0.0004
vn -0.7071 -0.7071 0.0006
vn -0.8660 -0.5000 0.0007
vn -0.9659 -0.2588 0.0008
usemtl ClockCase.001
s 1
f 1/1/1 2/2/2 6/3/2
f 6/3/2 5/4/1 1/1/1
f 2/2/2 3/5/3 7/6/3
f 7/6/3 6/3/2 2/2/2
f 3/5/3 4/7/4 8/8/4
f 8/8/4 7/6/3 3/5/3
f 4/7/4 1/9/1 5/10/1
f 5/10/1 8/8/4 4/7/4
f 9/11/1 10/12/5 18/13/6
f 18/13/6 17/14/1 9/11/1
f 10/12/5 11/15/7 19/16/7
f 19/16/7 18/13/6 10/12/5
f 11/17/7 12/18/8 20/19/8
f 20/19/8 19/20/7 11/17/7
f 12/18/8 13/21/3 21/22/3
f 21/22/3 20/19/8 12/18/8
f 13/21/3 14/23/9 22/24/9
f 22/24/9 21/22/3 13/21/3
f 14/23/9 15/25/4 23/26/4
f 23/26/4 22/24/9 14/23/9
f 15/25/4 16/27/10 24/28/10
f 24/28/10 23/26/4 15/25/4
f 16/27/10 9/11/1 17/14/1
f 17/14/1 24/28/10 16/27/10
f 29/29/11 31/30/12 25/31/4
f 31/30/12 34/32/13 25/31/4
f 34/32/13 37/33/14 25/31/4
f 37/33/14 40/34/15 25/31/4
f 40/34/15 43/35/16 25/31/4
f 43/35/16 46/36/17 25/31/4
f 46/36/17 49/37/18 25/31/4
f 49/37/18 52/38/19 25/31/4
f 52/38/19 55/39/20 25/31/4
f 55/39/20 58/40/21 25/31/4
f 58/40/21 61/41/22 25/31/4
f 61/41/22 64/42/23 25/31/4
f 64/42/23 67/43/24 25/31/4
f 67/43/24 70/44/25 25/31/4
f 70/44/25 73/45/26 25/31/4
f 73/45/26 76/46/27 25/31/4
f 76/46/27 79/47/28 25/31/4
f 79/47/28 82/48/29 25/31/4
f 82/48/29 85/49/30 25/31/4
f 85/49/30 88/50/31 25/31/4
f 88/50/31 91/51/32 25/31/4
f 91/51/32 94/52/33 25/31/4
f 94/52/33 97/53/34 25/31/4
f 97/53/34 29/29/11 25/31/4
f 28/54/35 26/55/2 32/56/36
f 32/56/36 26/55/2 35/57/37
f 35/57/37 26/55/2 38/58/38
f 38/58/38 26/55/2 41/59/39
f 41/59/39 26/55/2 44/60/40
f 44/60/40 26/55/2 47/61/41
f 47/61/41 26/55/2 50/62/42
f 50/62/42 26/55/2 53/63/43
f 53/63/43 26/55/2 56/64/44
f 56/64/44 26/55/2 59/65/45
f 59/65/45 26/55/2 62/66/46
f 62/66/46 26/55/2 65/67/47
f 65/67/47 26/55/2 68/68/48
f 68/68/48 26/55/2 71/69/49
f 71/69/49 26/55/2 74/70/50
f 74/70/50 26/55/2 77/71/51
f 77/71/51 26/55/2 80/72/52
f 80/72/52 26/55/2 83/73/53
f 83/73/53 26/55/2 86/74/54
f 86/74/54 26/55/2 89/75/55
f 89/75/55 26/55/2 92/76/56
f 92/76/56 26/55/2 95/77/57
f 95/77/57 26/55/2 98/78/58
f 98/78/58 26/55/2 28/54/35
f 31/30/12 29/29/11 27/79/59
f 27/79/59 30/80/60 31/30/12
f 34/32/13 31/30/12 30/80/60
f 30/80/60 33/81/61 34/32/13
f 37/33/14 34/32/13 33/81/61
f 33/81/61 36/82/62 37/33/14
f 40/34/15 37/33/14 36/82/62
f 36/82/62 39/83/63 40/34/15
f 43/35/16 40/34/15 39/83/63
f 39/83/63 42/84/64 43/35/16
f 46/36/17 43/35/16 42/84/64
f 42/84/64 45/85/65 46/36/17
f 49/37/18 46/36/17 45/85/65
f 45/85/65 48/86/66 49/37/18
f 52/38/19 49/37/18 48/86/66
f 48/86/66 51/87/67 52/38/19
f 55/39/20 52/38/19 51/87/67
f 51/87/67 54/88/68 55/39/20
f 58/40/21 55/39/20 54/88/68
f 54/88/68 57/89/69 58/40/21
f 61/41/22 58/40/21 57/89/69
f 57/89/69 60/90/70 61/41/22
f 64/42/23 61/41/22 60/90/70
f 60/90/70 63/91/71 64/42/23
f 67/43/24 64/42/23 63/91/71
f 63/91/71 66/92/72 67/43/24
f 70/44/25 67/43/24 66/92/72
f 66/92/72 69/93/73 70/44/25
f 73/45/26 70/44/25 69/93/73
f 69/93/73 72/94/74 73/45/26
f 76/46/27 73/45/26 72/94/74
f 72/94/74 75/95/75 76/46/27
f 79/47/28 76/46/27 75/95/75
f 75/95/75 78/96/76 79/47/28
f 82/48/29 79/47/28 78/96/76
f 78/96/76 81/97/77 82/48/29
f 85/49/30 82/48/29 81/97/77
f 81/97/77 84/98/78 85/49/30
f 88/50/31 85/49/30 84/98/78
f 84/98/78 87/99/79 88/50/31
f 91/51/32 88/50/31 87/99/79
f 87/99/79 90/100/80 91/51/32
f 94/52/33 91/51/32 90/100/80
f 90/100/80 93/101/81 94/52/33
f 97/53/34 94/52/33 93/101/81
f 93/101/81 96/102/82 97/53/34
f 29/29/11 97/53/34 96/102/82
f 96/102/82 27/79/59 29/29/11
f 28/54/35 32/56/36 30/103/60
f 30/103/60 27/104/59 28/54/35
f 32/56/36 35/57/37 33/105/61
f 33/105/61 30/103/60 32/56/36
f 35/57/37 38/58/38 36/106/62
f 36/106/62 33/105/61 35/57/37
f 38/58/38 41/59/39 39/107/63
f 39/107/63 36/106/62 38/58/38
f 41/59/39 44/60/40 42/108/64
f 42/108/64 39/107/63 41/59/39
f 44/60/40 47/61/41 45/109/65
f 45/109/65 42/108/64 44/60/40
f 47/61/41 50/62/42 48/110/66
f 48/110/66 45/109/65 47/61/41
f 50/62/42 53/63/43 51/111/67
f 51/111/67 48/110/66 50/62/42
f 53/63/43 56/64/44 54/112/68
f 54/112/68 51/111/67 53/63/43
f 56/64/44 59/65/45 57/113/69
f 57/113/69 54/112/68 56/64/44
f 59/65/45 62/66/46 60/114/70
f 60/114/70 57/113/69 59/65/45
f 62/66/46 65/67/47 63/115/71
f 63/115/71 60/114/70 62/66/46
f 65/67/47 68/68/48 66/116/72
f 66/116/72 63/115/71 65/67/47
f 68/68/48 71/69/49 69/117/73
f 69/117/73 66/116/72 68/68/48
f 71/69/49 74/70/50 72/118/74
f 72/118/74 69/117/73 71/69/49
f 74/70/50 77/71/51 75/119/75
f 75/119/75 72/118/74 74/70/50
f 77/71/51 80/72/52 78/120/76
f 78/120/76 75/119/75 77/71/51
f 80/72/52 83/73/53 81/121/77
f 81/121/77 78/120/76 80/72/52
f 83/73/53 86/74/54 84/122/78
f 84/122/78 81/121/77 83/73/53
f 86/74/54 89/75/55 87/123/79
f 87/123/79 84/122/78 86/74/54
f 89/75/55 92/76/56 90/124/80
f 90/124/80 87/123/79 89/75/55
f 92/76/56 95/77/57 93/125/81
f 93/125/81 90/124/80 92/76/56
f 95/77/57 98/78/58 96/126/82
f 96/126/82 93/125/81 95/77/57
f 98/78/58 28/54/35 27/104/59
f 27/104/59 96/126/82 98/78/58
